<?xml version="1.0" ?><svg data-name="Livello 1" id="Livello_1" viewBox="0 0 128 128" xmlns="http://www.w3.org/2000/svg"><title/><path d="M37.09,32.91A3,3,0,0,0,39.21,32L61,10.24V91a3,3,0,0,0,6,0V10.24L88.79,32A3,3,0,0,0,93,27.79L66.12.88A3,3,0,0,0,65.66.5L65.43.38a3,3,0,0,0-.29-.15,3,3,0,0,0-.31-.1L64.59.06a3,3,0,0,0-1.18,0l-.25.08a2.93,2.93,0,0,0-.31.1,3,3,0,0,0-.29.15L62.34.5a3,3,0,0,0-.46.38L35,27.79a3,3,0,0,0,2.12,5.12Z"/><path d="M125,88a3,3,0,0,0-3,3v22a9,9,0,0,1-9,9H15a9,9,0,0,1-9-9V91a3,3,0,0,0-6,0v22a15,15,0,0,0,15,15h98a15,15,0,0,0,15-15V91A3,3,0,0,0,125,88Z"/></svg>