<!-- Generated by IcoMoon.io -->
<svg version="1.1" xmlns="http://www.w3.org/2000/svg" width="1024" height="1024" viewBox="0 0 1024 1024">
<title></title>
<g id="icomoon-ignore">
</g>
<path fill="#000" stroke-linejoin="round" stroke-linecap="round" stroke-miterlimit="4" stroke-width="85.3333" stroke="#000" d="M827.733 640c-3.787 8.365-5.994 18.137-5.994 28.425 0 19.167 7.66 36.546 20.086 49.241l2.548 2.548c15.462 15.446 25.027 36.792 25.027 60.373s-9.565 44.928-25.026 60.373l-0.001 0.001c-15.446 15.462-36.792 25.027-60.373 25.027s-44.928-9.565-60.373-25.026l-2.561-2.561c-12.682-12.414-30.061-20.074-49.228-20.074-10.288 0-20.060 2.207-28.87 6.173l0.444-0.179c-25.218 11.009-42.548 35.679-42.667 64.411v7.268c0 47.128-38.205 85.333-85.333 85.333v0c-47.128 0-85.333-38.205-85.333-85.333v0-3.84c-0.712-29.493-19.455-54.432-45.595-64.267l-0.485-0.16c-8.365-3.787-18.137-5.994-28.425-5.994-19.167 0-36.546 7.66-49.241 20.086l-2.548 2.548c-15.446 15.462-36.792 25.027-60.373 25.027s-44.928-9.565-60.373-25.026l-0.001-0.001c-15.462-15.446-25.027-36.792-25.027-60.373s9.565-44.928 25.026-60.373l2.561-2.561c12.414-12.682 20.074-30.061 20.074-49.228 0-10.288-2.207-20.060-6.173-28.87l0.179 0.444c-11.009-25.218-35.679-42.548-64.411-42.667h-7.268c-47.128 0-85.333-38.205-85.333-85.333v0c0-47.128 38.205-85.333 85.333-85.333v0h3.84c29.493-0.712 54.432-19.455 64.267-45.595l0.16-0.485c3.787-8.365 5.994-18.137 5.994-28.425 0-19.167-7.66-36.546-20.086-49.241l-2.548-2.548c-15.462-15.446-25.027-36.792-25.027-60.373s9.565-44.928 25.026-60.373l0.001-0.001c15.446-15.462 36.792-25.027 60.373-25.027s44.928 9.565 60.373 25.026l2.561 2.561c12.682 12.414 30.061 20.074 49.228 20.074 10.288 0 20.060-2.207 28.87-6.173l-0.444 0.179h3.413c25.218-11.009 42.548-35.679 42.667-64.411v-7.268c0-47.128 38.205-85.333 85.333-85.333v0c47.128 0 85.333 38.205 85.333 85.333v0 3.84c0.118 28.747 17.448 53.418 42.214 64.25l0.453 0.177c8.365 3.787 18.137 5.994 28.425 5.994 19.167 0 36.546-7.66 49.241-20.086l2.548-2.548c15.446-15.462 36.792-25.027 60.373-25.027s44.928 9.565 60.373 25.026l0.001 0.001c15.462 15.446 25.027 36.792 25.027 60.373s-9.565 44.928-25.026 60.373l-2.561 2.561c-12.414 12.682-20.074 30.061-20.074 49.228 0 10.288 2.207 20.060 6.173 28.87l-0.179-0.444v3.413c11.009 25.218 35.679 42.548 64.411 42.667h7.268c47.128 0 85.333 38.205 85.333 85.333v0c0 47.128-38.205 85.333-85.333 85.333v0h-3.84c-28.747 0.118-53.418 17.448-64.25 42.214l-0.177 0.453z"></path>
<path fill="#fff" stroke-linejoin="round" stroke-linecap="round" stroke-miterlimit="4" stroke-width="85.3333" stroke="#000" d="M640 512c0 70.692-57.308 128-128 128s-128-57.308-128-128c0-70.692 57.308-128 128-128s128 57.308 128 128z"></path>
</svg>
